<?xml version="1.0" standalone="no"?>
<!DOCTYPE svg PUBLIC "-//W3C//DTD SVG 20010904//EN"
 "http://www.w3.org/TR/2001/REC-SVG-20010904/DTD/svg10.dtd">
<svg version="1.0" xmlns="http://www.w3.org/2000/svg"
viewBox="0 0 600.000000 600.000000"
 preserveAspectRatio="xMidYMid meet">
<metadata>
Created by potrace 1.15, written by Peter Selinger 2001-2017
</metadata>
<g transform="translate(0.000000,600.000000) scale(0.100000,-0.100000)"
fill="#000000" stroke="none">
<path d="M3560 5949 c-432 -35 -798 -238 -992 -549 -39 -63 -116 -227 -122
-262 -3 -12 -5 -24 -7 -25 -1 -2 -3 -7 -4 -13 -1 -5 -3 -11 -5 -12 -2 -3 -6
-20 -14 -53 -2 -11 -5 -20 -7 -20 -1 0 -3 -9 -5 -20 -2 -11 -6 -33 -9 -50 -4
-16 -8 -46 -10 -65 -3 -19 -7 -53 -10 -75 -3 -22 -8 -254 -11 -515 -3 -261 -7
-481 -9 -488 -4 -10 -97 -12 -450 -10 l-445 3 0 -532 0 -533 450 0 450 0 0
-1345 0 -1345 555 0 555 0 -2 1345 -3 1345 450 0 c422 0 451 1 452 18 0 9 3
35 6 57 4 22 8 58 11 80 6 47 14 106 21 155 2 19 7 55 10 80 3 25 7 61 10 80
2 19 9 73 15 120 19 155 25 200 45 344 8 60 15 114 15 120 0 8 -154 11 -515
11 l-515 0 0 395 c-1 217 2 409 4 425 7 40 14 69 16 73 2 1 3 5 4 10 10 52
117 192 148 192 6 0 32 11 58 24 27 13 51 22 54 19 3 -3 12 -1 19 5 8 7 17 9
20 6 3 -4 14 -3 24 2 32 14 121 18 426 18 l297 1 -2 475 -3 475 -130 12 c-120
11 -658 35 -715 32 -14 -1 -72 -6 -130 -10z"/>
</g>
</svg>
