<?xml version="1.0" standalone="no"?>
<!DOCTYPE svg PUBLIC "-//W3C//DTD SVG 20010904//EN"
 "http://www.w3.org/TR/2001/REC-SVG-20010904/DTD/svg10.dtd">
<svg version="1.0" xmlns="http://www.w3.org/2000/svg"
viewBox="0 0 600.000000 600.000000"
 preserveAspectRatio="xMidYMid meet">
<metadata>
Created by potrace 1.15, written by Peter Selinger 2001-2017
</metadata>
<g transform="translate(0.000000,600.000000) scale(0.100000,-0.100000)"
fill="#000000" stroke="none">
<path d="M2664 5875 c-146 -15 -335 -45 -349 -55 -5 -4 -71 -22 -145 -40 -74
-19 -140 -39 -147 -45 -6 -6 -48 -22 -92 -35 -45 -12 -81 -26 -81 -30 0 -4
-38 -22 -85 -40 -47 -18 -85 -36 -85 -40 0 -4 -29 -20 -65 -35 -36 -16 -65
-31 -65 -35 0 -3 -27 -19 -60 -35 -33 -16 -60 -32 -60 -35 0 -4 -22 -19 -48
-33 -26 -14 -59 -35 -72 -47 -13 -11 -40 -31 -60 -42 -19 -12 -37 -25 -40 -28
-3 -3 -23 -19 -45 -35 -22 -16 -50 -39 -61 -50 -12 -11 -47 -42 -79 -70 -112
-99 -295 -287 -295 -304 0 -5 -10 -18 -23 -28 -27 -22 -53 -56 -112 -144 -24
-36 -51 -71 -59 -78 -9 -8 -16 -18 -16 -24 0 -5 -11 -24 -24 -41 -13 -17 -36
-55 -51 -83 -15 -29 -31 -53 -37 -53 -5 0 -7 -4 -3 -9 3 -5 1 -12 -3 -15 -12
-7 -119 -225 -127 -259 -4 -15 -11 -27 -15 -27 -4 0 -18 -33 -30 -72 -13 -40
-29 -83 -36 -94 -7 -12 -27 -77 -44 -145 -17 -68 -36 -133 -41 -144 -11 -26
-35 -175 -54 -340 -19 -167 -19 -549 -1 -715 19 -160 44 -321 56 -341 4 -9 20
-64 34 -123 14 -58 34 -126 45 -149 10 -23 29 -75 42 -114 13 -40 26 -73 29
-73 4 0 20 -33 36 -73 15 -39 33 -75 39 -79 6 -5 6 -8 0 -8 -7 0 -7 -3 0 -8 6
-4 23 -34 39 -67 16 -33 32 -62 36 -65 4 -3 19 -28 33 -57 15 -28 38 -64 52
-79 14 -15 25 -33 25 -39 0 -7 11 -23 25 -36 13 -13 25 -29 25 -34 0 -14 97
-139 206 -264 53 -62 252 -259 311 -308 82 -69 230 -178 274 -202 21 -11 43
-27 51 -35 8 -8 43 -29 79 -46 35 -18 66 -36 69 -41 3 -4 32 -20 65 -35 33
-15 62 -30 65 -34 3 -3 32 -17 65 -30 33 -13 74 -30 90 -38 69 -35 228 -82
278 -82 56 0 113 26 124 58 4 9 11 20 17 24 7 5 12 111 14 318 l3 311 -63 -8
c-113 -14 -454 -8 -542 10 -44 9 -82 21 -85 25 -3 5 -27 17 -52 26 -75 29
-218 160 -219 202 0 6 -9 21 -20 34 -11 13 -20 28 -20 34 0 17 -44 120 -55
128 -7 5 -7 8 0 8 6 0 5 3 -1 8 -6 4 -21 26 -33 49 -11 23 -32 54 -46 69 -14
15 -25 32 -25 38 0 20 -138 144 -188 170 -39 20 -104 100 -96 120 6 16 17 21
74 30 42 7 154 -10 158 -24 2 -5 10 -10 18 -10 15 0 115 -48 124 -59 3 -4 24
-21 48 -38 45 -33 138 -141 156 -183 21 -48 100 -138 189 -215 27 -24 137 -75
160 -75 8 0 17 -5 19 -12 6 -16 271 -14 276 2 2 5 13 10 25 10 34 0 177 41
191 55 7 7 18 44 24 82 14 83 85 232 131 274 59 53 50 59 -121 80 -54 6 -98
15 -98 19 0 4 -22 10 -49 14 -66 9 -203 44 -210 54 -4 4 -25 13 -47 20 -51 15
-251 118 -278 144 -11 10 -23 18 -28 18 -17 0 -140 118 -204 195 -45 56 -112
175 -139 250 -11 28 -24 59 -31 70 -14 23 -51 173 -61 243 -3 26 -9 49 -13 52
-11 7 -30 222 -30 337 0 106 15 244 29 278 5 11 19 56 30 100 25 93 41 135 50
135 4 0 15 23 26 51 11 28 29 61 40 74 11 12 26 33 34 46 8 13 32 45 54 72
l40 47 -21 88 c-12 48 -22 100 -22 115 0 15 -4 27 -10 27 -6 0 -10 47 -10 120
0 73 4 120 10 120 6 0 10 11 10 25 0 32 36 197 54 250 14 40 14 40 73 43 56 3
158 -12 178 -28 6 -4 42 -17 80 -29 39 -13 80 -29 91 -36 12 -8 58 -28 103
-45 44 -17 81 -35 81 -38 0 -4 22 -17 50 -30 27 -12 55 -28 62 -35 7 -8 34
-26 59 -40 l47 -28 88 20 c49 11 116 23 149 27 33 3 62 10 65 15 27 40 853 40
880 0 3 -5 32 -12 65 -15 33 -4 100 -16 149 -27 l88 -20 47 27 c25 15 48 30
51 34 3 4 32 22 65 39 33 18 76 41 95 51 97 53 261 120 295 120 8 0 15 4 15 9
0 26 218 43 238 18 16 -19 60 -188 68 -259 4 -32 11 -61 15 -64 13 -7 11 -224
-1 -224 -5 0 -10 -12 -10 -27 0 -15 -10 -66 -21 -115 l-22 -87 52 -63 c28 -35
51 -69 51 -75 0 -7 5 -13 10 -13 6 0 25 -30 43 -67 18 -38 40 -79 49 -93 8
-14 25 -63 38 -110 12 -47 26 -94 31 -105 14 -34 29 -172 29 -278 0 -115 -19
-330 -30 -337 -4 -3 -10 -26 -13 -52 -10 -75 -48 -221 -63 -245 -8 -12 -14
-28 -14 -35 0 -7 -25 -62 -56 -123 -55 -108 -147 -228 -217 -285 -17 -13 -41
-34 -54 -46 -13 -12 -37 -27 -53 -34 -17 -7 -30 -17 -30 -22 0 -5 -26 -21 -57
-36 -32 -15 -69 -35 -83 -44 -14 -9 -54 -26 -90 -39 -36 -13 -67 -26 -70 -30
-7 -9 -143 -45 -206 -54 -27 -4 -54 -11 -59 -15 -6 -5 -48 -13 -95 -19 -140
-19 -160 -22 -160 -32 0 -4 17 -25 38 -46 21 -21 49 -60 63 -88 13 -27 30 -57
37 -66 7 -9 20 -47 29 -85 14 -58 17 -156 22 -602 4 -371 9 -535 17 -540 6 -4
16 -17 22 -28 16 -29 71 -54 124 -54 38 -1 235 56 248 71 3 3 43 20 90 39 47
19 87 37 90 40 3 4 32 19 65 34 33 15 62 31 65 35 3 5 34 23 70 41 36 18 67
36 70 40 3 4 26 21 51 36 86 53 134 87 170 118 20 17 64 53 98 80 70 55 256
236 326 318 108 125 205 249 205 263 0 5 12 21 25 34 14 13 25 29 25 36 0 6
11 24 25 39 14 15 37 51 52 79 14 29 29 54 33 57 4 3 20 32 36 65 16 33 33 63
39 67 7 5 7 8 0 8 -6 0 -6 3 0 8 6 4 24 40 39 80 16 39 32 72 36 72 4 0 15 28
25 63 10 34 29 85 42 114 13 29 35 100 49 159 14 59 30 114 34 123 12 20 37
181 56 341 18 166 18 548 -1 715 -19 165 -43 314 -54 340 -5 11 -24 76 -41
145 -18 69 -36 130 -41 136 -5 6 -20 46 -35 90 -14 43 -29 81 -33 84 -4 3 -18
32 -31 65 -25 62 -95 202 -111 221 -5 6 -6 14 -2 17 3 4 2 7 -4 7 -6 0 -23 24
-38 53 -15 28 -38 66 -51 83 -13 17 -24 36 -24 41 0 6 -7 16 -16 24 -8 7 -35
42 -59 78 -59 88 -85 122 -112 144 -13 10 -23 23 -23 28 0 17 -181 203 -295
304 -31 28 -70 62 -86 78 -16 15 -33 27 -37 27 -4 0 -20 13 -37 28 -16 15 -46
37 -65 49 -20 12 -47 32 -60 43 -13 12 -46 33 -72 47 -26 14 -48 29 -48 33 0
3 -27 19 -60 35 -33 16 -60 32 -60 35 0 4 -29 19 -65 35 -36 15 -65 31 -65 35
0 4 -38 22 -85 40 -47 18 -85 36 -85 40 0 4 -36 18 -81 30 -44 13 -86 29 -92
35 -7 6 -73 26 -147 45 -74 18 -139 36 -145 40 -15 11 -195 39 -357 55 -171
17 -496 17 -664 0z"/>
</g>
</svg>
