<?xml version="1.0" standalone="no"?>
<!DOCTYPE svg PUBLIC "-//W3C//DTD SVG 20010904//EN"
 "http://www.w3.org/TR/2001/REC-SVG-20010904/DTD/svg10.dtd">
<svg version="1.0" xmlns="http://www.w3.org/2000/svg"
viewBox="0 0 600.000000 600.000000"
 preserveAspectRatio="xMidYMid meet">
<metadata>
Created by potrace 1.15, written by Peter Selinger 2001-2017
</metadata>
<g transform="translate(0.000000,600.000000) scale(0.100000,-0.100000)"
fill="#000000" stroke="none">
<path d="M516 5886 c-334 -90 -535 -363 -513 -695 18 -280 187 -499 459 -593
92 -33 95 -33 273 -33 171 0 184 2 260 28 241 84 400 251 455 478 27 114 26
214 -5 334 -32 128 -80 212 -174 306 -87 86 -139 118 -266 162 -83 28 -102 31
-245 34 -138 3 -165 0 -244 -21z"/>
<path d="M4420 4103 c-70 -7 -244 -44 -304 -64 -247 -84 -477 -262 -647 -503
l-49 -69 -2 274 -3 274 -650 3 -650 2 -3 -1970 -2 -1970 652 2 653 3 5 1210
c4 934 8 1218 18 1247 89 262 278 451 513 514 88 23 281 23 368 0 101 -27 177
-71 250 -144 71 -72 136 -183 165 -282 52 -178 49 -122 55 -1375 l6 -1170 603
-3 602 -2 -2 1517 -3 1518 -46 110 c-86 202 -164 327 -291 460 -225 238 -488
365 -861 415 -73 9 -299 11 -377 3z"/>
<path d="M82 2053 l3 -1968 648 -3 647 -2 0 1970 0 1970 -650 0 -650 0 2
-1967z"/>
</g>
</svg>
