<svg version="1.0" xmlns="http://www.w3.org/2000/svg"
 viewBox="0 0 612.000000 612.000000"
 preserveAspectRatio="xMidYMid meet">
<g transform="translate(0.000000,612.000000) scale(0.100000,-0.100000)"
fill="#000000" stroke="none">
<path d="M0 3060 l0 -3060 1635 0 1635 0 0 1190 0 1190 -400 0 -400 0 0 475 0
475 400 0 400 0 0 439 c0 463 5 537 46 678 50 172 133 312 264 444 140 142
296 232 499 287 l96 26 492 4 493 3 0 -430 0 -431 -330 0 c-308 0 -333 -1
-384 -21 -77 -28 -148 -96 -188 -177 l-33 -67 -3 -377 -3 -378 460 0 c432 0
461 -1 461 -17 0 -10 -27 -220 -60 -468 -33 -247 -60 -453 -60 -457 0 -5 -180
-8 -400 -8 l-400 0 0 -1190 0 -1190 950 0 950 0 0 3060 0 3060 -3060 0 -3060
0 0 -3060z"/>
</g>
</svg>
