<?xml version="1.0" standalone="no"?>
<!DOCTYPE svg PUBLIC "-//W3C//DTD SVG 20010904//EN"
 "http://www.w3.org/TR/2001/REC-SVG-20010904/DTD/svg10.dtd">
<svg version="1.0" xmlns="http://www.w3.org/2000/svg"
 viewBox="0 0 612.000000 612.000000"
 preserveAspectRatio="xMidYMid meet">
<g transform="translate(0.000000,612.000000) scale(0.100000,-0.100000)"
fill="#000000" stroke="none">
<path d="M1155 6104 c-139 -21 -259 -60 -390 -124 -277 -134 -491 -348 -625
-625 -66 -134 -103 -252 -125 -400 -22 -150 -22 -3650 0 -3800 22 -148 59
-266 125 -400 187 -385 546 -661 960 -739 73 -14 306 -16 1965 -16 1659 0
1892 2 1965 16 537 102 972 537 1074 1074 14 73 16 306 16 1965 0 1659 -2
1892 -16 1965 -78 414 -354 773 -739 960 -134 66 -252 103 -400 125 -144 21
-3670 21 -3810 -1z m2870 -744 c279 -16 479 -62 660 -153 113 -56 187 -109
284 -201 237 -227 352 -490 393 -901 19 -185 19 -1905 0 -2090 -39 -389 -147
-654 -356 -873 -106 -112 -285 -228 -440 -287 -276 -103 -531 -120 -1686 -112
-919 6 -1022 14 -1275 98 -203 67 -339 153 -486 306 -197 204 -299 429 -345
763 -32 231 -35 2033 -4 2270 38 288 116 497 257 684 204 273 479 421 889 482
190 29 1670 38 2109 14z"/>
<path d="M2154 4949 c-362 -17 -549 -84 -725 -259 -83 -82 -103 -108 -143
-191 -53 -108 -90 -243 -107 -386 -7 -62 -13 -388 -16 -888 -5 -821 3 -1169
32 -1326 63 -338 235 -555 523 -659 165 -60 265 -70 787 -81 499 -10 1244 -4
1510 12 213 12 346 43 484 110 92 45 117 63 197 143 80 81 98 105 142 196 99
204 109 278 123 922 15 671 0 1489 -31 1664 -72 411 -302 644 -710 719 -47 8
-173 20 -280 25 -224 11 -1546 11 -1786 -1z m2220 -390 c63 -16 135 -75 168
-138 36 -68 39 -171 7 -241 -93 -205 -386 -217 -493 -20 -57 105 -42 231 37
317 77 83 169 110 281 82z m-1066 -338 c485 -106 846 -485 928 -973 20 -120
15 -329 -11 -448 -24 -110 -88 -264 -153 -371 -76 -125 -252 -302 -375 -378
-185 -114 -365 -168 -587 -178 -342 -14 -654 108 -896 352 -162 164 -270 367
-320 605 -22 104 -24 323 -5 430 29 161 100 337 193 473 54 79 185 215 268
278 142 108 374 202 565 228 98 14 288 5 393 -18z"/>
<path d="M2880 3810 c-348 -86 -590 -393 -590 -750 0 -305 160 -560 437 -699
225 -112 507 -101 730 30 78 46 229 198 276 279 72 124 115 312 102 444 -33
343 -261 612 -589 696 -103 26 -260 26 -366 0z"/>
</g>
</svg>
