<svg version="1.0" xmlns="http://www.w3.org/2000/svg"
 viewBox="0 0 612.000000 612.000000"
 preserveAspectRatio="xMidYMid meet">
<g transform="translate(0.000000,612.000000) scale(0.100000,-0.100000)"
fill="#000000" stroke="none">
<path d="M305 6057 c-151 -57 -256 -179 -285 -332 -8 -44 -10 -771 -8 -2720 3
-2548 4 -2662 21 -2710 45 -122 158 -234 279 -274 l64 -21 2700 2 2700 3 75
37 c93 46 168 122 212 215 l32 68 3 2698 2 2697 -21 62 c-38 114 -122 207
-237 261 l-67 32 -2705 2 -2705 2 -60 -22z m1160 -832 c186 -39 329 -166 393
-349 65 -185 3 -405 -152 -542 -110 -96 -270 -146 -404 -125 -299 46 -509 347
-437 624 50 193 211 351 398 392 82 18 118 18 202 0z m2945 -1385 c439 -85
677 -361 755 -875 27 -181 36 -531 33 -1305 l-3 -755 -445 0 -445 0 -5 870
c-5 805 -7 876 -24 945 -43 173 -124 285 -241 330 -73 29 -261 39 -359 20
-193 -38 -314 -173 -368 -411 -21 -91 -22 -123 -25 -927 l-4 -832 -442 2 -442
3 0 1445 0 1445 425 0 425 0 3 -197 c1 -116 6 -198 12 -198 5 0 25 24 43 53
136 212 398 368 682 406 96 13 310 4 425 -19z m-2600 -1490 l0 -1450 -442 2
-443 3 -3 1435 c-1 789 0 1441 3 1448 3 9 102 12 445 12 l440 0 0 -1450z"/>
</g>
</svg>
