<svg version="1.0" xmlns="http://www.w3.org/2000/svg" viewBox="0 0 612.000000 612.000000" preserveAspectRatio="xMidYMid meet">
	<g transform="translate(0.000000,612.000000) scale(0.100000,-0.100000)" fill="#000000" stroke="none">
	<path d="M0 3060 l0 -3060 3060 0 3060 0 0 3060 0 3060 -3060 0 -3060 0 0
	-3060z m4290 2072 c71 -19 92 -26 167 -58 17 -8 33 -14 36 -14 19 0 189 -113
	249 -166 49 -43 81 -64 98 -64 32 0 234 59 325 94 39 15 124 54 191 87 66 32
	126 59 132 59 14 0 16 -23 3 -48 -4 -9 -25 -51 -45 -92 -39 -78 -43 -87 -90
	-160 -35 -54 -196 -214 -237 -235 -63 -33 -23 -45 71 -21 30 7 72 17 92 20 62
	11 296 91 312 107 16 14 46 10 46 -6 0 -47 -304 -379 -452 -494 l-68 -53 0
	-126 c0 -139 -23 -394 -46 -512 -45 -230 -50 -252 -101 -420 -83 -275 -261
	-639 -431 -880 -219 -310 -492 -580 -791 -780 -311 -209 -679 -362 -1046 -436
	-251 -50 -330 -57 -665 -57 -289 0 -339 2 -454 22 -71 12 -132 23 -136 26 -3
	2 -35 9 -71 14 -64 11 -236 55 -274 71 -11 5 -45 16 -75 26 -202 62 -635 278
	-628 313 3 16 39 17 173 5 66 -5 277 8 395 26 67 10 114 21 285 64 147 38 397
	155 570 268 58 37 105 71 105 76 0 5 -44 16 -98 26 -187 32 -328 91 -476 197
	-170 122 -307 300 -379 495 -21 56 -11 69 43 54 73 -20 333 -10 356 13 11 11
	-8 27 -31 27 -26 0 -63 15 -160 63 -254 125 -463 366 -550 634 -43 131 -69
	333 -45 348 6 3 29 -2 53 -13 96 -45 186 -74 273 -91 124 -23 124 -23 5 97
	-59 59 -128 139 -154 178 -50 78 -107 192 -107 215 0 8 -4 19 -9 25 -22 23
	-62 247 -63 354 -1 85 13 195 36 280 23 85 92 256 106 265 15 9 35 -6 72 -53
	75 -93 178 -194 403 -392 49 -42 252 -183 354 -244 92 -56 314 -169 381 -194
	19 -7 48 -19 63 -27 16 -8 35 -15 44 -15 8 0 27 -6 41 -14 79 -40 357 -113
	522 -136 36 -5 85 -14 110 -20 25 -5 87 -12 138 -15 l92 -6 0 28 c0 15 -5 69
	-10 118 -22 210 32 442 152 657 34 60 164 212 226 262 58 48 223 156 238 156
	3 0 24 9 48 20 48 21 178 59 246 71 84 14 358 3 440 -19z"></path>
</g>
</svg>
