<svg version="1.0" xmlns="http://www.w3.org/2000/svg" viewBox="0 0 612.000000 612.000000" preserveAspectRatio="xMidYMid meet">
	<metadata>
	Created by potrace 1.15, written by Peter Selinger 2001-2017
	</metadata>
	<g transform="translate(0.000000,612.000000) scale(0.100000,-0.100000)" fill="#000000" stroke="none">
	<path d="M520 6091 c-71 -25 -171 -77 -214 -111 -137 -107 -230 -237 -281
	-392 l-25 -77 0 -2451 0 -2451 25 -77 c51 -156 143 -283 283 -394 43 -34 168
	-97 217 -109 28 -6 54 -16 59 -20 13 -12 4939 -12 4952 0 5 4 31 14 59 20 55
	14 155 67 230 122 124 92 224 235 274 391 l21 67 0 2451 0 2451 -21 67 c-50
	158 -144 290 -287 404 -42 34 -168 97 -217 109 -27 6 -54 16 -60 20 -5 5
	-1102 8 -2475 8 l-2465 -1 -75 -27z m2723 -651 c265 -18 489 -67 716 -157 455
	-179 827 -477 1096 -879 610 -910 492 -2130 -280 -2908 -309 -311 -681 -522
	-1111 -631 -154 -38 -290 -56 -496 -62 -392 -12 -724 58 -1090 229 l-110 52
	-57 -16 c-70 -20 -133 -40 -735 -232 -270 -85 -491 -154 -493 -153 -1 2 25 84
	58 183 243 713 349 1030 349 1043 0 8 -36 87 -80 175 -114 230 -180 434 -227
	703 -21 123 -24 516 -4 638 20 128 69 334 101 429 305 896 1113 1518 2060
	1585 63 4 124 9 135 9 11 1 86 -3 168 -8z"></path>
	<path d="M2803 5060 c-422 -64 -802 -256 -1103 -559 -277 -278 -453 -606 -537
	-997 -26 -122 -27 -144 -27 -384 0 -240 1 -262 27 -381 54 -248 148 -479 276
	-676 l60 -93 -119 -352 c-66 -194 -120 -356 -120 -360 0 -12 36 -10 77 6 21 8
	88 30 148 49 61 19 204 65 319 102 185 59 212 66 230 54 83 -53 271 -146 371
	-183 969 -353 2015 61 2479 981 196 389 248 902 136 1336 -201 777 -860 1360
	-1653 1462 -160 20 -409 18 -564 -5z m-303 -907 c20 -19 47 -69 81 -148 150
	-359 161 -388 155 -420 -8 -42 -50 -105 -125 -189 -72 -82 -76 -104 -30 -180
	165 -271 388 -471 676 -608 118 -56 152 -65 188 -52 17 7 150 161 201 233 40
	56 68 66 130 45 75 -25 487 -228 503 -247 19 -24 10 -142 -19 -237 -20 -66
	-29 -81 -84 -135 -85 -82 -192 -141 -303 -165 -143 -32 -226 -24 -423 41 -387
	128 -585 238 -836 466 -212 193 -494 568 -578 770 -119 286 -86 547 96 747 82
	91 116 105 240 106 93 0 99 -1 128 -27z"></path>
	</g>
	</svg>
